<?xml version="1.0" encoding="utf-8"?>
<!-- Generator: Adobe Illustrator 15.1.0, SVG Export Plug-In . SVG Version: 6.00 Build 0)  -->
<!DOCTYPE svg PUBLIC "-//W3C//DTD SVG 1.1//EN" "http://www.w3.org/Graphics/SVG/1.1/DTD/svg11.dtd">
<svg version="1.1" id="Layer_2" xmlns="http://www.w3.org/2000/svg" xmlns:xlink="http://www.w3.org/1999/xlink" x="0px" y="0px"
	 width="897.845px" height="247.51px" viewBox="0 0 897.845 247.51" enable-background="new 0 0 897.845 247.51"
	 xml:space="preserve">
<g>
	<g>
		<linearGradient id="SVGID_1_" gradientUnits="userSpaceOnUse" x1="287.3965" y1="65.2686" x2="287.3965" y2="106.4546">
			<stop  offset="0" style="stop-color:#E27817"/>
			<stop  offset="0.3906" style="stop-color:#E47519"/>
			<stop  offset="0.7116" style="stop-color:#E96B1F"/>
			<stop  offset="1" style="stop-color:#F15A29"/>
		</linearGradient>
		<polygon fill="url(#SVGID_1_)" points="285.068,66.556 272.054,95.664 302.739,95.664 302.739,66.556 		"/>
		<linearGradient id="SVGID_2_" gradientUnits="userSpaceOnUse" x1="216.8877" y1="65.2686" x2="216.8877" y2="106.4546">
			<stop  offset="0" style="stop-color:#E27817"/>
			<stop  offset="0.3906" style="stop-color:#E47519"/>
			<stop  offset="0.7116" style="stop-color:#E96B1F"/>
			<stop  offset="1" style="stop-color:#F15A29"/>
		</linearGradient>
		<polygon fill="url(#SVGID_2_)" points="180.483,95.664 193.893,95.664 240.172,95.664 253.292,66.556 180.483,66.556 		"/>
		<g>
			<polygon fill="#019733" points="256.464,59.293 253.603,65.696 253.593,65.696 253.197,66.592 240.172,95.7 215.738,150.321 
				199.788,185.978 231.676,185.978 231.676,185.969 272.071,95.7 275.634,87.737 285.089,66.592 288.355,59.293 			"/>
		</g>
		<g>
			<polygon fill="#019733" points="215.738,150.321 194.605,95.7 180.483,95.7 180.483,135.118 199.788,185.969 199.788,185.978 			
				"/>
		</g>
		<path fill="#019733" d="M151.355,59.294v100.005h-28.989h-11.292v-7.972c3.644-4.232,6.749-9.936,6.749-16.218
			c0-2.846-0.456-5.578-1.294-8.104h0.011l-4.274-12.151c-0.238-1.16-0.633-2.257-1.15-3.281v-0.032l-5.878-11.59
			c-1.201-2.808-3.975-4.897-7.34-5.362c0.281-4.969,2.837-8.87,5.932-8.87l-3.137-1.004l3.137-3.033
			c-5.01,0-9.098,5.775-9.388,13.021c-3.116,0.609-5.672,2.598-6.79,5.258l-5.723,11.271c-0.052,0.104-0.104,0.197-0.155,0.3v0.01
			c-0.528,1.057-0.932,2.174-1.169,3.344l-4.232,12.079c-0.012,0.02-0.012,0.03-0.021,0.042c-0.828,2.525-1.294,5.258-1.294,8.104
			c0,6.282,3.25,11.985,6.904,16.218v35.616h29.112h11.294h58.105V59.294H151.355z M86.554,117.834
			c-0.673,2.019-2.442,3.252-3.954,2.744c-1.51-0.508-2.194-2.547-1.521-4.565c0.673-2.017,2.443-3.25,3.953-2.742
			C86.544,113.777,87.228,115.817,86.554,117.834z M110.163,120.578c-1.51,0.508-3.27-0.726-3.954-2.744
			c-0.672-2.017,0.011-4.057,1.521-4.563c1.512-0.508,3.282,0.726,3.955,2.742C112.357,118.031,111.674,120.07,110.163,120.578z"/>
		<linearGradient id="SVGID_3_" gradientUnits="userSpaceOnUse" x1="134.6348" y1="65.2686" x2="134.6348" y2="106.4546">
			<stop  offset="0" style="stop-color:#E27817"/>
			<stop  offset="0.3906" style="stop-color:#E47519"/>
			<stop  offset="0.7116" style="stop-color:#E96B1F"/>
			<stop  offset="1" style="stop-color:#F15A29"/>
		</linearGradient>
		<polygon fill="url(#SVGID_3_)" points="151.292,66.556 117.914,66.556 117.914,95.664 145.981,95.664 151.292,95.664 
			151.355,95.664 151.355,66.592 151.292,66.592 		"/>
		<g opacity="0.5">
			<linearGradient id="SVGID_4_" gradientUnits="userSpaceOnUse" x1="244.0713" y1="198.6924" x2="244.0713" y2="111.1674">
				<stop  offset="0" style="stop-color:#019733"/>
				<stop  offset="0.1363" style="stop-color:#0B732D;stop-opacity:0.8637"/>
				<stop  offset="0.2826" style="stop-color:#145529;stop-opacity:0.7174"/>
				<stop  offset="0.4366" style="stop-color:#1A3D25;stop-opacity:0.5634"/>
				<stop  offset="0.5997" style="stop-color:#1F2C22;stop-opacity:0.4003"/>
				<stop  offset="0.778" style="stop-color:#222221;stop-opacity:0.222"/>
				<stop  offset="1" style="stop-color:#231F20;stop-opacity:0"/>
			</linearGradient>
			<polygon fill="url(#SVGID_4_)" points="256.464,59.293 253.603,65.696 253.593,65.696 253.197,66.592 240.172,95.7 
				215.738,150.321 199.788,185.978 231.676,185.978 231.676,185.969 272.071,95.7 275.634,87.737 285.089,66.592 288.355,59.293 
							"/>
		</g>
		<linearGradient id="SVGID_5_" gradientUnits="userSpaceOnUse" x1="165.9131" y1="41.1123" x2="165.9131" y2="128.6277">
			<stop  offset="0" style="stop-color:#019733"/>
			<stop  offset="0.1363" style="stop-color:#0B732D;stop-opacity:0.8637"/>
			<stop  offset="0.2826" style="stop-color:#145529;stop-opacity:0.7174"/>
			<stop  offset="0.4366" style="stop-color:#1A3D25;stop-opacity:0.5634"/>
			<stop  offset="0.5997" style="stop-color:#1F2C22;stop-opacity:0.4003"/>
			<stop  offset="0.778" style="stop-color:#222221;stop-opacity:0.222"/>
			<stop  offset="1" style="stop-color:#231F20;stop-opacity:0"/>
		</linearGradient>
		<rect x="151.355" y="59.294" opacity="0.5" fill="url(#SVGID_5_)" width="29.116" height="127.649"/>
		<g opacity="0.58">
			<linearGradient id="SVGID_6_" gradientUnits="userSpaceOnUse" x1="198.1104" y1="83.4141" x2="198.1104" y2="154.2879">
				<stop  offset="0" style="stop-color:#019733"/>
				<stop  offset="0.0409" style="stop-color:#038E32;stop-opacity:0.9591"/>
				<stop  offset="0.2465" style="stop-color:#0F662B;stop-opacity:0.7535"/>
				<stop  offset="0.4491" style="stop-color:#184726;stop-opacity:0.5509"/>
				<stop  offset="0.6453" style="stop-color:#1E3123;stop-opacity:0.3547"/>
				<stop  offset="0.8322" style="stop-color:#222421;stop-opacity:0.1678"/>
				<stop  offset="1" style="stop-color:#231F20;stop-opacity:0"/>
			</linearGradient>
			<polygon fill="url(#SVGID_6_)" points="215.738,150.321 194.605,95.7 180.483,95.7 180.483,135.118 199.788,185.969 
				199.788,185.978 			"/>
		</g>
		<linearGradient id="SVGID_7_" gradientUnits="userSpaceOnUse" x1="127.7627" y1="192.1367" x2="127.7627" y2="137.5901">
			<stop  offset="0" style="stop-color:#019733"/>
			<stop  offset="0.0409" style="stop-color:#038E32;stop-opacity:0.9591"/>
			<stop  offset="0.2465" style="stop-color:#0F662B;stop-opacity:0.7535"/>
			<stop  offset="0.4491" style="stop-color:#184726;stop-opacity:0.5509"/>
			<stop  offset="0.6453" style="stop-color:#1E3123;stop-opacity:0.3547"/>
			<stop  offset="0.8322" style="stop-color:#222421;stop-opacity:0.1678"/>
			<stop  offset="1" style="stop-color:#231F20;stop-opacity:0"/>
		</linearGradient>
		<path opacity="0.6" fill="url(#SVGID_7_)" d="M151.355,59.294v100.005h-28.989h-11.292v-7.972
			c3.644-4.232,6.749-9.936,6.749-16.218c0-2.846-0.456-5.578-1.294-8.104h0.011l-4.274-12.151c-0.238-1.16-0.633-2.257-1.15-3.281
			v-0.032l-5.878-11.59c-1.201-2.808-3.975-4.897-7.34-5.362c0.281-4.969,2.837-8.87,5.932-8.87l-3.137-1.004l3.137-3.033
			c-5.01,0-9.098,5.775-9.388,13.021c-3.116,0.609-5.672,2.598-6.79,5.258l-5.723,11.271c-0.052,0.104-0.104,0.197-0.155,0.3v0.01
			c-0.528,1.057-0.932,2.174-1.169,3.344l-4.232,12.079c-0.012,0.02-0.012,0.03-0.021,0.042c-0.828,2.525-1.294,5.258-1.294,8.104
			c0,6.282,3.25,11.985,6.904,16.218v35.616h29.112h11.294h58.105V59.294H151.355z M86.554,117.834
			c-0.673,2.019-2.442,3.252-3.954,2.744c-1.51-0.508-2.194-2.547-1.521-4.565c0.673-2.017,2.443-3.25,3.953-2.742
			C86.544,113.777,87.228,115.817,86.554,117.834z M110.163,120.578c-1.51,0.508-3.27-0.726-3.954-2.744
			c-0.672-2.017,0.011-4.057,1.521-4.563c1.512-0.508,3.282,0.726,3.955,2.742C112.357,118.031,111.674,120.07,110.163,120.578z"/>
		<g opacity="0.5">
			<linearGradient id="SVGID_8_" gradientUnits="userSpaceOnUse" x1="244.0713" y1="53.3584" x2="244.0713" y2="78.0277">
				<stop  offset="0" style="stop-color:#019733"/>
				<stop  offset="0.1363" style="stop-color:#0B732D;stop-opacity:0.8637"/>
				<stop  offset="0.2826" style="stop-color:#145529;stop-opacity:0.7174"/>
				<stop  offset="0.4366" style="stop-color:#1A3D25;stop-opacity:0.5634"/>
				<stop  offset="0.5997" style="stop-color:#1F2C22;stop-opacity:0.4003"/>
				<stop  offset="0.778" style="stop-color:#222221;stop-opacity:0.222"/>
				<stop  offset="1" style="stop-color:#231F20;stop-opacity:0"/>
			</linearGradient>
			<polygon fill="url(#SVGID_8_)" points="256.464,59.293 253.603,65.696 253.593,65.696 253.197,66.592 240.172,95.7 
				215.738,150.321 199.788,185.978 231.676,185.978 231.676,185.969 272.071,95.7 275.634,87.737 285.089,66.592 288.355,59.293 
							"/>
		</g>
		<polygon fill="#019733" points="180.483,59.198 183.329,66.556 180.471,66.556 		"/>
		<polygon fill="#019733" points="180.483,59.198 183.329,66.556 180.471,66.556 		"/>
		<g>
			<polygon fill="#019733" points="290.713,66.592 285.054,66.592 288.32,59.293 			"/>
			<polygon fill="#019733" points="308.417,120.554 283.562,95.7 300.261,95.7 			"/>
			<polygon opacity="0.6" fill="#019733" points="308.417,120.554 283.562,95.7 300.261,95.7 			"/>
			<polygon fill="#019733" points="290.713,66.592 285.054,66.592 288.32,59.293 			"/>
		</g>
	</g>
	<g>
		<path fill="#666666" d="M358.849,130.077v23.827h28.81V77.887h16.547v91.732h-62.987v-39.542H358.849z"/>
		<path fill="#666666" d="M434.61,93.602v22.677h45.356v14.949H434.61v22.677h45.356v15.715h-62.987V77.887h62.987v15.715H434.61z"
			/>
		<path fill="#666666" d="M492.744,169.619V77.887h56.342l6.643,8.05v75.634l-6.579,8.049H492.744z M539.184,93.602h-28.811v60.303
			h28.811V93.602z"/>
		<path fill="#666666" d="M586.136,169.619h-17.632V77.887h17.632V169.619z"/>
		<path fill="#666666" d="M598.913,116.278h33.281v14.949h-33.281V116.278z"/>
		<path fill="#666666" d="M691.412,77.887h16.544l-19.995,91.732h-21.462l-21.527-91.732h17.63l13.798,70.588L691.412,77.887z"/>
		<path fill="#666666" d="M738.364,169.619h-17.631V77.887h17.631V169.619z"/>
		<path fill="#666666" d="M768.77,169.619h-17.632V77.887h17.632l17.886,50.273l18.59-50.273h16.545v91.732h-16.545v-38.392
			l-12.84,38.392h-10.35l-13.286-38.392V169.619z"/>
	</g>
</g>
</svg>
